<svg viewBox="0 0 254.53 93.39" xmlns="http://www.w3.org/2000/svg" xmlns:xlink="http://www.w3.org/1999/xlink" overflow="hidden"><defs></defs><g id="Layer_2"><g id="Layer_1-2"><path d="M16.15 20.36 4.77 20.36 4.77 2.75C4.80134 1.8458 4.27838 1.01381 3.45 0.65 3.10859 0.468084 2.72682 0.37522 2.34 0.38 1.95984 0.377719 1.58514 0.470534 1.25 0.65 0.441299 1.02653-0.054583 1.85961 1.19209e-07 2.75L0 21.75C-0.0930445 23.5259 1.2712 25.041 3.04712 25.1341 3.21818 25.143 3.38969 25.1383 3.56 25.12L16.15 25.12C17.4588 25.104 18.5069 24.03 18.4909 22.7212 18.4907 22.7075 18.4904 22.6937 18.49 22.68 18.502 21.4374 17.5045 20.4203 16.2619 20.4083 16.2246 20.4079 16.1873 20.4085 16.15 20.41Z" fill="#E6E6E6"/><path d="M89.63 0.54C88.437 0.377353 87.3381 1.21257 87.1755 2.40552 87.1559 2.54947 87.1507 2.69502 87.16 2.84L87.16 16.27 75.27 1.32C74.8134 0.681625 74.0513 0.334859 73.27 0.41 71.9729 0.453406 70.9565 1.54014 70.9999 2.83728 70.9999 2.83819 71 2.83909 71 2.84L71 22.64C70.93 23.8751 71.8745 24.9332 73.1097 25.0031 73.2097 25.0088 73.3101 25.0078 73.41 25 74.6769 24.9367 75.6757 23.8984 75.69 22.63L75.69 9.76C79.49 14.62 83.31 19.35 87.34 24.21 87.8115 24.829 88.564 25.1676 89.34 25.11 90.6684 25.1933 91.8128 24.184 91.8961 22.8556 91.9006 22.7838 91.9019 22.7119 91.9 22.64L91.9 2.91C91.9776 1.68085 91.044 0.621549 89.8149 0.543984 89.7533 0.540101 89.6917 0.538772 89.63 0.54Z" fill="#E6E6E6"/><path d="M117.52 10.67C118.34 10.22 119.23 8.37 119.23 6.72 119.23 2.99 116.23 0.38 111.8 0.38L102.89 0.38C101.639 0.46504 100.694 1.54795 100.779 2.79875 100.779 2.8025 100.78 2.80625 100.78 2.81L100.78 22.61C100.698 23.8776 101.658 24.9719 102.926 25.0543 103.044 25.062 103.162 25.0605 103.28 25.05L113 25.05C114.94 24.8908 116.76 24.0431 118.13 22.66 118.83 21.9198 119.407 21.0724 119.84 20.15 120.346 19.1776 120.607 18.0962 120.6 17 120.55 13.35 118.39 11 117.52 10.67ZM116.09 16.67C116.107 18.9177 114.298 20.7535 112.051 20.7703 112.02 20.7706 111.99 20.7704 111.96 20.77L105.58 20.77 105.58 13.61 112 13.61C113 13.61 116.13 13.83 116.13 16.61M105.58 9.19 105.58 4.67 110.52 4.67C112.4 4.67 114.65 5.08 114.65 7.01 114.65 8.76 112.65 9.21 110.99 9.28 110.46 9.28 106.99 9.19 105.58 9.19" fill="#E6E6E6"/><path d="M147.26 7C147.26 3 144.18 0.08 139.93 0.08L130.76 0.08C129.56 0.08 128.62 0.87 128.62 2.58L128.62 22.8C128.514 24.0714 129.459 25.188 130.73 25.2941 130.826 25.3021 130.923 25.3041 131.02 25.3 131.454 25.3036 131.882 25.2042 132.27 25.01 133.045 24.5517 133.501 23.6993 133.45 22.8L133.45 13.51 136.61 13.51C136.79 13.74 142.32 23.28 142.86 23.99 143.335 24.6336 144.063 25.0417 144.86 25.11 146.059 25.091 147.071 24.2139 147.26 23.03 147.234 22.475 147.061 21.9368 146.76 21.47 145.66 19.64 142.38 14.47 141.86 13.63 145.005 12.9802 147.26 10.2109 147.26 7M142.65 6.87C142.65 8.47 140.65 8.87 138.96 8.95L133.45 8.95 133.45 4.53 138.58 4.53C140.44 4.53 142.65 4.78 142.65 6.92" fill="#E6E6E6"/><path d="M159.1 0.68C158.721 0.490495 158.304 0.388005 157.88 0.38 157.49 0.376508 157.105 0.469248 156.76 0.65 155.98 1.04583 155.524 1.87981 155.61 2.75L155.61 22.61C155.56 23.5248 156.049 24.3846 156.86 24.81 157.207 24.9874 157.591 25.0799 157.98 25.08 158.371 25.0812 158.756 24.985 159.1 24.8 159.917 24.3858 160.409 23.5243 160.35 22.61L160.35 2.75C160.4 1.86815 159.904 1.04591 159.1 0.68" fill="#E6E6E6"/><path d="M215.54 10.85 208.35 10.85C207.061 10.8608 206.016 11.9006 206 13.19 206.004 14.4547 207.033 15.4765 208.298 15.4722 208.329 15.4721 208.359 15.4713 208.39 15.47L213 15.47 213 18.21C212.967 18.3776 212.895 18.5351 212.79 18.67 211.92 19.86 210.09 20.47 207.33 20.47 205.372 20.5826 203.483 19.7313 202.27 18.19 201.001 16.5396 200.344 14.5006 200.41 12.42 200.41 7.85 203.08 4.89 207.23 4.89 209.231 4.8316 211.198 5.4093 212.85 6.54 213.36 6.93612 213.984 7.15706 214.63 7.17 215.853 7.25309 216.912 6.32881 216.995 5.10556 216.998 5.07041 216.999 5.03522 217 5 216.979 4.35679 216.727 3.74271 216.29 3.27L216.29 3.27C214.76 1.88 211.95 0.21 207.23 0.21 202.924 0.0170365 198.911 2.3865 197 6.25 196.057 8.20406 195.581 10.3505 195.61 12.52 195.61 21.01 201.99 25.21 207.21 25.21 211.46 25.21 217.78 23.67 217.78 19.44L217.85 13.35C217.842 12.6887 217.601 12.0513 217.17 11.55 216.766 11.0569 216.145 10.7949 215.51 10.85" fill="#E6E6E6"/><path d="M242 20.3 231.2 20.3 231.2 13.38 240.79 13.38C241.991 13.2794 242.902 12.2543 242.86 11.05 242.888 9.76687 241.873 8.70275 240.59 8.67L231.2 8.67 231.2 5.05 242 5.05C243.189 5.19712 244.273 4.3522 244.42 3.1628 244.438 3.01923 244.441 2.87424 244.43 2.73 244.43 1.41004 243.36 0.33985 242.04 0.339665 242.027 0.339663 242.013 0.339775 242 0.34L228.83 0.34C228.267 0.312207 227.71 0.474181 227.25 0.8 226.66 1.23722 226.339 1.94843 226.4 2.68L226.4 22.58C226.394 23.911 227.469 24.9945 228.8 25.0001 228.81 25.0001 228.82 25.0001 228.83 25L242 25C243.227 25.1119 244.312 24.2084 244.423 22.9819 244.433 22.8782 244.435 22.774 244.43 22.67 244.459 21.389 243.444 20.327 242.163 20.298 242.109 20.2967 242.054 20.2974 242 20.3" fill="#E6E6E6"/><path d="M29.24 0.81C28.8548 0.617255 28.4307 0.514666 28 0.51 27.6177 0.516058 27.2417 0.608352 26.9 0.78 26.1223 1.17793 25.6664 2.0104 25.75 2.88L25.75 22.75C25.6948 24.0522 26.7056 25.1527 28.0078 25.2079 28.0452 25.2095 28.0826 25.2102 28.12 25.21 28.5131 25.2135 28.901 25.1208 29.25 24.94 30.0559 24.5152 30.5404 23.6596 30.49 22.75L30.49 2.88C30.5434 1.99744 30.0459 1.17368 29.24 0.81" fill="#E6E6E6"/><path d="M51 0.2C43.9252 0.200002 38.19 5.93524 38.19 13.01 38.19 20.0848 43.9252 25.82 51 25.82 58.0748 25.82 63.81 20.0848 63.81 13.01 63.81 13.0067 63.81 13.0033 63.81 13 63.8045 5.92914 58.0709 0.199997 51 0.199999M51 21.1C46.5265 21.1055 42.8955 17.4835 42.89 13.01 42.8845 8.5365 46.5065 4.90554 50.98 4.90001 55.4535 4.89449 59.0845 8.5165 59.09 12.99 59.09 12.9933 59.09 12.9967 59.09 13 59.0955 17.468 55.478 21.0945 51.01 21.1 51.0067 21.1 51.0033 21.1 51 21.1" fill="#E6E6E6"/><path d="M62.68 30.51C62.2842 29.7302 61.4502 29.2735 60.58 29.36L27.21 29.36C26.2857 29.2918 25.4121 29.7899 25 30.62 24.8238 30.9636 24.7313 31.3439 24.73 31.73 24.73 32.1238 24.8261 32.5117 25.01 32.86 25.4384 33.6783 26.3081 34.168 27.23 34.11L60.58 34.11C61.4657 34.1646 62.2917 33.6618 62.65 32.85 62.8384 32.4739 62.9408 32.0606 62.95 31.64 62.9535 31.247 62.8608 30.859 62.68 30.51ZM27.15 33C26.4376 33 25.86 32.4224 25.86 31.71 25.86 30.9976 26.4376 30.42 27.15 30.42 27.8624 30.42 28.44 30.9976 28.44 31.71 28.44 32.4224 27.8624 33 27.15 33ZM60.46 33C59.7476 33 59.17 32.4224 59.17 31.71 59.17 30.9976 59.7476 30.42 60.46 30.42 61.1724 30.42 61.75 30.9976 61.75 31.71 61.75 32.4224 61.1724 33 60.46 33Z" fill="#F26522"/><path d="M170.54 25.34C169.437 25.3909 168.501 24.5376 168.45 23.4342 168.447 23.3729 168.447 23.3114 168.45 23.25L168.45 2C168.45 0.92 168.92 0 170.07 0L177.6 0C185.1 0 189.87 4.6 189.87 11.93L189.87 12.47C189.87 20.65 185.27 25.34 177.33 25.34ZM185 11.93C185 7.23 182.37 4.59 177 4.59L173.29 4.59 173.29 20.72 177.1 20.72C182.31 20.72 185 18.04 185 12.37Z" fill="#E6E6E6"/><path d="M130 63.69 130 70.1C130 74.38 123.42 75.91 119.8 75.91 113.117 75.9068 107.703 70.4869 107.706 63.8042 107.706 63.6995 107.707 63.5947 107.71 63.49 107.71 56.05 112.16 50.83 119.71 50.83 122.88 50.7682 125.964 51.8672 128.38 53.92 128.827 54.416 129.085 55.053 129.11 55.72 129.089 56.968 128.061 57.9628 126.813 57.9419 126.792 57.9416 126.771 57.9409 126.75 57.94 125.977 57.9191 125.237 57.625 124.66 57.11 123.094 56.0865 121.249 55.5762 119.38 55.65 115.02 55.65 112.53 58.71 112.53 63.09 112.53 67.47 114.99 71.23 119.94 71.23 121.47 71.23 123.94 70.8 125.25 69.3L125.25 66.08 120.54 66.08C119.161 66.0967 118.027 64.9984 118 63.62 118.016 62.3001 119.1 61.2435 120.419 61.2598 120.423 61.2599 120.426 61.2599 120.43 61.26L127.64 61.26C128.887 61.2011 129.945 62.1641 130.004 63.4109 130.008 63.5039 130.007 63.5971 130 63.69Z" fill="#F26522"/><path d="M149.17 63.09C151.3 57.97 153.56 52.43 153.62 52.26 154.036 51.4812 154.828 50.9767 155.71 50.93 156.676 50.9631 157.562 51.4773 158.07 52.3L166.58 72.82C166.668 73.0078 166.712 73.2128 166.71 73.42 166.498 74.7336 165.416 75.7327 164.09 75.84 163.154 75.7579 162.345 75.1539 162 74.28L159.37 68 152.37 68C151.84 69.33 149.94 74.11 149.78 74.41 149.408 75.241 148.59 75.7825 147.68 75.8 146.401 75.8182 145.335 74.8267 145.26 73.55 145.281 72.9497 145.428 72.3604 145.69 71.82 145.78 71.46 147.41 67.41 149.17 63.09ZM157.44 63.19 155.85 59.34 154.32 63.19Z" fill="#F26522"/><path d="M183.71 66.28 183.87 65.85C185.8 61.5 187.76 57.11 189.87 52.85L190.07 52.48C190.54 51.48 190.84 50.92 192.17 50.92 194.29 50.92 194.42 52.22 194.52 54.84 194.76 60.32 194.89 71.02 194.89 73.28 194.991 74.5684 194.028 75.6944 192.739 75.7949 192.646 75.8022 192.553 75.8039 192.46 75.8 191.118 75.8168 190.017 74.7427 190 73.4007 189.999 73.3738 189.999 73.3469 190 73.32L190 64.32C188.77 67.04 187.47 69.7 186.14 72.32 185.61 73.55 184.85 74.81 183.52 74.81 182.511 74.6682 181.638 74.0351 181.19 73.12L181.19 73.29C180.09 70.86 179 68.4 177.9 66 177.33 64.7 177.7 65.44 177.1 64.14 177.086 64.3598 177.086 64.5802 177.1 64.8L177.1 66.07C177.1 67.46 177.03 68.86 177 70.22 177 71.15 176.93 72.04 176.93 72.97 176.93 75.27 175.73 75.83 174.57 75.83 173.23 75.9081 172.081 74.8854 172.003 73.5456 171.998 73.4705 171.997 73.3952 172 73.32 172.23 66.81 172.43 56.51 172.43 54.12 172.43 52.12 173.06 50.93 174.82 50.93 175.19 50.93 176.28 50.93 177.11 52.76L183.49 66.71C183.539 66.5555 183.613 66.4102 183.71 66.28Z" fill="#F26522"/><path d="M200.68 53.32C200.563 52.094 201.462 51.0053 202.688 50.8884 202.862 50.8718 203.037 50.8757 203.21 50.9L216.49 50.9C217.871 50.8945 218.994 52.0093 219 53.39 219 53.39 219 53.39 219 53.39 219.005 54.6768 217.965 55.7238 216.679 55.7286 216.609 55.7288 216.539 55.726 216.47 55.72L205.47 55.72 205.47 59.34 215.33 59.34C216.533 59.3968 217.462 60.4178 217.405 61.6205 217.402 61.6772 217.397 61.7337 217.39 61.79 217.536 62.9628 216.704 64.032 215.531 64.178 215.398 64.1945 215.264 64.1985 215.13 64.19L205.5 64.19 205.5 71 216.62 71C217.95 70.9581 219.063 72.0026 219.105 73.333 219.147 74.6633 218.102 75.7757 216.772 75.8176 216.678 75.8206 216.584 75.818 216.49 75.81L203.21 75.81C201.892 75.8886 200.761 74.8841 200.682 73.5665 200.677 73.4844 200.676 73.4022 200.68 73.32Z" fill="#F26522"/><path d="M236.26 65.32 232.51 64.32C226.96 63.32 224.7 61.32 224.7 57.84 224.7 53.23 228.29 50.47 233.37 50.47 238.16 50.47 242.61 52.99 242.61 55.47 242.583 56.7291 241.606 57.7626 240.35 57.86 239.644 57.7718 238.982 57.472 238.45 57 236.997 55.8771 235.207 55.2781 233.37 55.3 230.88 55.3 229.55 56.04 229.55 57.16 229.55 58.63 231.88 59.16 234.64 59.76 239.05 60.76 244.43 62.01 244.43 67.93 244.43 73.04 240.35 76.33 234.7 76.33 230.538 76.3814 226.569 74.5783 223.87 71.41 223.364 70.8633 223.07 70.1542 223.04 69.41 222.979 68.2518 223.868 67.2634 225.027 67.2024 225.161 67.1953 225.296 67.2012 225.43 67.22 226.3 67.22 226.86 67.49 227.86 68.58 229.482 70.4775 231.875 71.5398 234.37 71.47 237.59 71.47 239.58 70.14 239.58 68.02 239.58 66.68 238.59 65.91 236.26 65.32Z" fill="#F26522"/><path d="M119.78 88.76 119.78 88.76C119.602 88.7599 119.455 88.9017 119.45 89.08L119.45 90.78 119.1 90.78 119.1 89.08C119.1 88.9033 118.957 88.76 118.78 88.76L118.78 88.76C118.603 88.76 118.46 88.9033 118.46 89.08L118.46 90.77C107.269 90.7454 97.2395 83.8566 93.2 73.42 93.663 73.0267 93.7195 72.3325 93.3261 71.8695 93.0502 71.5447 92.6114 71.4085 92.2 71.52 91.6236 71.7065 91.3032 72.3206 91.48 72.9 91.6297 73.3817 92.0981 73.6913 92.6 73.64 96.7332 84.3288 107 91.3877 118.46 91.42L118.46 93.06C118.454 93.2311 118.589 93.3744 118.76 93.38 118.766 93.3802 118.773 93.3802 118.78 93.38L118.78 93.38C118.958 93.3801 119.105 93.2383 119.11 93.06L119.11 91.43 119.46 91.43 119.46 93.06C119.454 93.2366 119.593 93.3843 119.77 93.3898 119.773 93.3899 119.777 93.39 119.78 93.39L119.78 93.39C119.962 93.39 120.11 93.2423 120.11 93.06L120.11 89.06C120.099 88.8872 119.953 88.7543 119.78 88.76Z" fill="#F7941D"/><path d="M145.89 53.73C145.74 53.3126 145.333 53.0438 144.89 53.07 140.793 42.2023 130.374 35.0251 118.76 35.07L118.64 35.07C106.8 35.0748 96.2629 42.5811 92.39 53.77L90.7 53.24C90.5307 53.1892 90.3523 53.2853 90.3016 53.4546 90.301 53.4564 90.3005 53.4582 90.3 53.46 90.244 53.6218 90.3299 53.7983 90.4917 53.8543 90.4977 53.8564 90.5038 53.8583 90.51 53.86L92.17 54.38 92.05 54.73 90.4 54.22C90.2261 54.1681 90.0429 54.2664 89.99 54.44 89.9392 54.6093 90.0353 54.7877 90.2046 54.8384 90.2064 54.839 90.2082 54.8395 90.21 54.84L94.12 56.06 94.22 56.06C94.3621 56.0581 94.487 55.9654 94.53 55.83 94.5808 55.6607 94.4847 55.4823 94.3154 55.4316 94.3136 55.431 94.3118 55.4305 94.31 55.43L92.67 54.92C92.67 54.8 92.76 54.68 92.79 54.56L94.42 55.07 94.52 55.07C94.6962 55.0834 94.85 54.9515 94.8634 54.7753 94.8753 54.619 94.7723 54.4771 94.62 54.44L93 54C96.7803 43.0685 107.073 35.7341 118.64 35.73L118.76 35.73C130.114 35.6892 140.295 42.7182 144.28 53.35 144.011 53.6071 143.907 53.9924 144.01 54.35 144.277 54.8337 144.885 55.0096 145.368 54.743 145.722 54.5484 145.923 54.1608 145.88 53.76Z" fill="#F7941D"/><path d="M118.73 88C105.033 88 93.93 76.8967 93.93 63.2 93.93 49.5033 105.033 38.4 118.73 38.4 132.427 38.4 143.53 49.5033 143.53 63.2 143.53 63.2033 143.53 63.2067 143.53 63.21 143.513 76.8982 132.418 87.989 118.73 88ZM118.73 39.06C105.392 39.06 94.58 49.8723 94.58 63.21 94.58 76.5477 105.392 87.36 118.73 87.36 132.068 87.36 142.88 76.5477 142.88 63.21 142.858 49.8847 132.055 39.091 118.73 39.08Z" fill="#F7941D"/><path d="M92.73 43.93 92.73 43.93C92.737 43.9072 92.737 43.8828 92.73 43.86L92.73 43.86 91.38 42.58C91.3573 42.5724 91.3327 42.5724 91.31 42.58L91.31 42.58 91.22 42.58 91.13 42.58 91.13 42.58C91.1074 42.5716 91.0826 42.5716 91.06 42.58 88.1661 44.7962 85.7509 47.5753 83.96 50.75 82.2137 53.8518 81.1085 57.2728 80.71 60.81L80.4 60.81 80.03 60.81 80.03 60.81C79.8716 60.8039 79.7357 60.9222 79.72 61.08 79.3998 63.971 79.5688 66.8952 80.22 69.73 80.841 72.411 81.8912 74.9741 83.33 77.32 83.4098 77.442 83.5638 77.492 83.7 77.44L84.02 77.29 84.1 77.29C85.0564 78.7864 86.1262 80.2073 87.3 81.54 88.3274 82.7043 89.4333 83.7969 90.61 84.81L90.61 84.81C90.6641 84.8533 90.7308 84.8778 90.8 84.88 90.8824 84.8804 90.9615 84.848 91.02 84.79L92.48 83.3 92.48 83.3C92.4884 83.274 92.4884 83.246 92.48 83.22L92.48 83.22C92.4868 83.1904 92.4868 83.1596 92.48 83.13 92.4857 83.1036 92.4857 83.0764 92.48 83.05L92.48 83.05C92.48 83.05 92.48 83.05 92.48 83.05 92.48 83.05 92.48 83.05 92.48 82.98L92.48 82.98C90.9 81.7 83 74.79 83.18 63.42 83.35 52.35 91.11 45.71 92.67 44.49 92.67 44.49 92.67 44.49 92.67 44.49L92.67 44.49C92.6764 44.4671 92.6764 44.4429 92.67 44.42L92.67 44.42 92.67 44.33C92.6747 44.3002 92.6747 44.2698 92.67 44.24ZM92 44C89.76 45.83 82.71 52.45 82.55 63.19 82.4792 67.9768 83.8181 72.6786 86.4 76.71 87.8734 79.0752 89.7053 81.1971 91.83 83L90.83 84C89.7654 83.0668 88.7632 82.0646 87.83 81 86.6192 79.6283 85.5222 78.16 84.55 76.61 84.4926 76.5224 84.3948 76.4697 84.29 76.47L84.18 76.47 83.85 76.62 83.78 76.62C82.4462 74.3894 81.4709 71.9632 80.89 69.43 80.2722 66.7533 80.0965 63.9935 80.37 61.26L80.52 61.26 80.93 61.26C81.0884 61.2661 81.2243 61.1478 81.24 60.99 81.5904 57.4826 82.6521 54.0834 84.36 51 86.0722 47.9708 88.3662 45.3098 91.11 43.17Z" fill="#F7941D"/><path d="M254.5 57.19C254.529 57.1162 254.529 57.0338 254.5 56.96L254.13 55.8C254.105 55.722 254.046 55.6595 253.97 55.63 253.9 55.6 253.82 55.6 253.75 55.63 253.674 55.6571 253.61 55.7103 253.57 55.78 253.541 55.8538 253.541 55.9362 253.57 56.01L253.84 56.88 253.37 57.03C253.222 57.0776 253.132 57.2272 253.16 57.38 254.513 63.7024 253.582 70.2998 250.53 76 248.829 79.0374 246.534 81.7005 243.78 83.83L242.88 82.98C245.12 81.16 252.17 74.54 252.33 63.8 252.401 59.0132 251.062 54.3114 248.48 50.28 247.006 47.9152 245.178 45.7905 243.06 43.98L244.06 42.98C245.122 43.9159 246.124 44.9179 247.06 45.98 248.275 47.348 249.373 48.8166 250.34 50.37 250.4 50.455 250.496 50.5069 250.6 50.51 250.652 50.5245 250.708 50.5245 250.76 50.51 250.897 50.4269 250.941 50.2485 250.857 50.1116 250.855 50.1077 250.853 50.1038 250.85 50.1 249.039 47.2094 246.804 44.6071 244.22 42.38L244.22 42.38 244.22 42.38C244.197 42.3724 244.173 42.3724 244.15 42.38L244.15 42.38 244.07 42.38 244.07 42.38C244.044 42.3743 244.016 42.3743 243.99 42.38L243.99 42.38C243.964 42.3746 243.936 42.3746 243.91 42.38L242.4 43.8 242.4 43.8C242.4 43.8 242.4 43.8 242.4 43.87L242.4 43.87C242.367 43.922 242.367 43.988 242.4 44.04L242.4 44.04C242.4 44.04 242.4 44.09 242.4 44.11L242.4 44.11C243.98 45.38 251.88 52.3 251.7 63.66 251.53 74.74 243.77 81.38 242.21 82.6 242.21 82.6 242.21 82.6 242.21 82.6L242.21 82.6C242.202 82.6227 242.202 82.6473 242.21 82.67L242.21 82.67 242.21 82.67C242.204 82.7031 242.204 82.7369 242.21 82.77 242.204 82.7964 242.204 82.8236 242.21 82.85L242.21 82.85C242.202 82.8726 242.202 82.8974 242.21 82.92L243.58 84.22C243.638 84.2712 243.713 84.2996 243.79 84.3 243.855 84.3 243.918 84.2789 243.97 84.24 246.876 82.0327 249.293 79.2476 251.07 76.06 254.157 70.3113 255.133 63.6634 253.83 57.27L254.35 57.11C254.392 57.1501 254.444 57.1778 254.5 57.19Z" fill="#F7941D"/><path d="M119.31 82.39C108.607 82.39 99.93 73.7133 99.93 63.01 99.93 52.3067 108.607 43.63 119.31 43.63 119.87 43.63 120.43 43.63 120.98 43.7 121.529 43.7477 121.936 44.2307 121.89 44.78 121.842 45.3291 121.359 45.7362 120.81 45.69 120.32 45.69 119.81 45.63 119.31 45.63 109.711 45.6283 101.929 53.4082 101.927 63.0069 101.925 72.6056 109.705 80.3883 119.304 80.39 124.42 80.3909 129.277 78.1374 132.58 74.23 132.903 73.7817 133.528 73.6799 133.976 74.0025 134.424 74.3251 134.526 74.95 134.203 75.3983 134.172 75.4415 134.138 75.4822 134.1 75.52 130.425 79.8804 125.012 82.3948 119.31 82.39Z" fill="#F7941D"/></g></g></svg>